<?xml version="1.0" encoding="utf-8"?>
<!-- Generator: Adobe Illustrator 24.0.0, SVG Export Plug-In . SVG Version: 6.00 Build 0)  -->
<svg version="1.1" id="Layer_1" xmlns="http://www.w3.org/2000/svg" xmlns:xlink="http://www.w3.org/1999/xlink" x="0px" y="0px"
	 viewBox="0 0 128 128" enable-background="new 0 0 128 128" xml:space="preserve">
<g>
	<path fill="#E6E7E8" d="M118.311,43.484h-4.827V20.604c0-3.86-3.14-7-7-7H23.684c-3.86,0-7,3.14-7,7v58.526H7.689
		c-0.552,0-1,0.448-1,1v3.933c0,3.83,3.116,6.945,6.945,6.945h16.654c1.358,4.896,3.765,10.009,7.983,14
		c10.174,9.626,23.877,8.169,28.052,7.444v3.944c0,0.396,0.234,0.755,0.596,0.915c0.13,0.058,0.268,0.085,0.404,0.085
		c0.244,0,0.485-0.09,0.673-0.261l11.189-10.192c0.208-0.189,0.327-0.458,0.327-0.739s-0.119-0.55-0.327-0.739L67.997,95.272
		c-0.293-0.267-0.716-0.336-1.078-0.175c-0.362,0.16-0.596,0.519-0.596,0.915v4.335c-2.641,0.441-11.585,1.483-19.935-2.829
		c-2.685-1.386-5.082-3.777-7.146-6.51h43.011v20.389c0,3.309,2.691,6,6,6h30.058c3.309,0,6-2.691,6-6V49.484
		C124.311,46.176,121.62,43.484,118.311,43.484z"/>
	<g>
		<g>
			<path fill="#0089EF" d="M108.485,76.129V16.603c0-3.314-2.686-6-6-6H19.683c-3.314,0-6,2.686-6,6v59.526H108.485z"/>
			<path fill="#D4FBFF" d="M101.456,76.129V21.441c0-1.105-0.895-2-2-2H22.712c-1.105,0-2,0.895-2,2v54.689H101.456z"/>
			<path fill="#FFFFFF" d="M99.456,19.441h-3c1.105,0,2,0.895,2,2v54.688h3V21.441C101.456,20.336,100.561,19.441,99.456,19.441z"/>
			<g>
				<path fill="#0089EF" d="M3.689,76.129v3.933c0,3.283,2.662,5.945,5.945,5.945h102.898c3.284,0,5.946-2.662,5.946-5.945v-3.933
					H3.689z"/>
			</g>
			<path fill="#0089EF" d="M3.689,76.129v3.933c0,3.283,2.662,5.945,5.945,5.945h102.898c3.284,0,5.946-2.662,5.946-5.945v-3.933
				H3.689z"/>
			<path fill="#6DC9F7" d="M42.033,76.129v1.991c0,1.662,1.347,3.009,3.009,3.009h32.083c1.662,0,3.01-1.348,3.01-3.009v-1.991
				H42.033z"/>
		</g>
		<g>
			<path fill="#FA759E" d="M59.405,43.115h-6.809c-0.552,0-1-0.448-1-1s0.448-1,1-1h6.809c0.552,0,1,0.448,1,1
				S59.957,43.115,59.405,43.115z"/>
			<path fill="#FA759E" d="M46.596,43.115H31.763c-0.552,0-1-0.448-1-1s0.448-1,1-1h14.833c0.552,0,1,0.448,1,1
				S47.148,43.115,46.596,43.115z"/>
			<path fill="#FA759E" d="M79.253,48.115H67.095c-0.552,0-1,0.448-1,1s0.448,1,1,1h12.158V48.115z"/>
			<path fill="#FA759E" d="M61.929,50.115H36.763c-0.552,0-1-0.448-1-1s0.448-1,1-1h25.166c0.552,0,1,0.448,1,1
				S62.481,50.115,61.929,50.115z"/>
			<path fill="#FA759E" d="M79.253,55.115H55.184c-0.552,0-1,0.448-1,1s0.448,1,1,1h24.069V55.115z"/>
			<path fill="#FA759E" d="M49.096,57.115H36.763c-0.552,0-1-0.448-1-1s0.448-1,1-1h12.333c0.552,0,1,0.448,1,1
				S49.648,57.115,49.096,57.115z"/>
			<path fill="#FA759E" d="M79.253,62.115h-42.49c-0.552,0-1,0.448-1,1s0.448,1,1,1h42.49V62.115z"/>
			<path fill="#FA759E" d="M59.405,71.115H49.096c-0.552,0-1-0.448-1-1s0.448-1,1-1h10.309c0.552,0,1,0.448,1,1
				S59.957,71.115,59.405,71.115z"/>
			<path fill="#FA759E" d="M45.096,71.115H31.763c-0.552,0-1-0.448-1-1s0.448-1,1-1h13.333c0.552,0,1,0.448,1,1
				S45.648,71.115,45.096,71.115z"/>
		</g>
		<g>
			<g>
				<path fill="#6DC9F7" d="M84.253,112.396h30.058c2.761,0,5-2.239,5-5V45.484c0-2.761-2.239-5-5-5H84.253c-2.761,0-5,2.239-5,5
					v61.912C79.253,110.158,81.491,112.396,84.253,112.396z"/>
				
					<rect x="71.61" y="54.945" transform="matrix(-1.836970e-16 1 -1 -1.836970e-16 174.2566 -24.3075)" fill="#D4FBFF" width="55.344" height="40.058"/>
				<path fill="#0089EF" d="M93.771,44.704h11.021c0.408,0,0.742-0.334,0.742-0.742v0c0-0.408-0.334-0.742-0.742-0.742H93.771
					c-0.408,0-0.742,0.334-0.742,0.742v0C93.03,44.37,93.363,44.704,93.771,44.704z"/>
				<path fill="#0089EF" d="M89.248,43.962c0,0.45,0.364,0.814,0.814,0.814c0.45,0,0.814-0.364,0.814-0.814
					c0-0.45-0.364-0.814-0.814-0.814C89.613,43.148,89.248,43.513,89.248,43.962z"/>
				<path fill="#0089EF" d="M95.679,108.908h7.206c0.991,0,1.802-0.811,1.802-1.802l0,0c0-0.991-0.811-1.802-1.802-1.802h-7.206
					c-0.991,0-1.802,0.811-1.802,1.802l0,0C93.877,108.097,94.688,108.908,95.679,108.908z"/>
			</g>
		</g>
		<path fill="#FA759E" d="M25.751,70.615c0,0-1.943,19.115,9.208,29.667c11.625,11,28.364,6.951,28.364,6.951v5.164l11.189-10.192
			L63.323,92.012v5.164c0,0-11.043,2.576-21.394-2.769C31.763,89.157,25.751,70.615,25.751,70.615z"/>
		<g>
			<g>
				<path fill="#FA759E" d="M112.603,70.259h-5.809c-0.552,0-1-0.448-1-1s0.448-1,1-1h5.809c0.552,0,1,0.448,1,1
					S113.155,70.259,112.603,70.259z"/>
				<path fill="#FA759E" d="M100.794,70.259H85.961c-0.552,0-1-0.448-1-1s0.448-1,1-1h14.833c0.552,0,1,0.448,1,1
					S101.346,70.259,100.794,70.259z"/>
				<path fill="#FA759E" d="M112.603,77.259H90.961c-0.552,0-1-0.448-1-1s0.448-1,1-1h21.642c0.552,0,1,0.448,1,1
					S113.155,77.259,112.603,77.259z"/>
				<path fill="#FA759E" d="M112.603,84.259H90.961c-0.552,0-1-0.448-1-1s0.448-1,1-1h21.642c0.552,0,1,0.448,1,1
					S113.155,84.259,112.603,84.259z"/>
				<path fill="#FA759E" d="M112.603,91.259H90.961c-0.552,0-1-0.448-1-1s0.448-1,1-1h21.642c0.552,0,1,0.448,1,1
					S113.155,91.259,112.603,91.259z"/>
				<path fill="#FA759E" d="M112.603,98.259h-9.309c-0.552,0-1-0.448-1-1s0.448-1,1-1h9.309c0.552,0,1,0.448,1,1
					S113.155,98.259,112.603,98.259z"/>
				<path fill="#FA759E" d="M99.294,98.259H85.961c-0.552,0-1-0.448-1-1s0.448-1,1-1h13.333c0.552,0,1,0.448,1,1
					S99.846,98.259,99.294,98.259z"/>
			</g>
			<g>
				<path fill="#3A2C60" d="M20.711,61.615c0.552,0,1-0.448,1-1v-9.667c0-0.552-0.448-1-1-1s-1,0.448-1,1v9.667
					C19.711,61.167,20.159,61.615,20.711,61.615z"/>
				<path fill="#3A2C60" d="M41.356,36.303c0.135,0.062,0.277,0.091,0.417,0.091c0.378,0,0.741-0.216,0.909-0.583l4.522-9.848
					c0.23-0.502,0.011-1.096-0.491-1.326c-0.5-0.229-1.095-0.011-1.326,0.491l-4.522,9.848
					C40.634,35.479,40.854,36.072,41.356,36.303z"/>
				<path fill="#3A2C60" d="M49.825,36.046c0.198,0.23,0.477,0.348,0.758,0.348c0.231,0,0.463-0.08,0.652-0.242l5.723-4.924
					c0.221-0.19,0.348-0.466,0.348-0.758c0-0.291-0.127-0.568-0.348-0.758l-5.723-4.924c-0.418-0.36-1.05-0.313-1.41,0.105
					s-0.313,1.05,0.105,1.41l4.842,4.167l-4.842,4.166C49.512,34.996,49.465,35.627,49.825,36.046z"/>
				<path fill="#3A2C60" d="M36.833,36.152c0.189,0.163,0.421,0.242,0.652,0.242c0.281,0,0.561-0.118,0.758-0.348
					c0.36-0.419,0.313-1.05-0.105-1.41l-4.842-4.166l4.842-4.167c0.418-0.36,0.466-0.991,0.105-1.41
					c-0.36-0.419-0.991-0.465-1.41-0.105l-5.723,4.924c-0.221,0.19-0.348,0.467-0.348,0.758c0,0.292,0.127,0.568,0.348,0.758
					L36.833,36.152z"/>
				<path fill="#3A2C60" d="M114.311,39.484h-4.827V16.604c0-3.86-3.14-7-7-7H19.684c-3.86,0-7,3.14-7,7v58.526H3.689
					c-0.552,0-1,0.448-1,1v3.933c0,3.83,3.116,6.945,6.945,6.945h16.654c1.358,4.896,3.765,10.009,7.983,14
					c10.174,9.626,23.878,8.169,28.052,7.444v3.944c0,0.396,0.234,0.755,0.596,0.915c0.13,0.058,0.268,0.085,0.404,0.085
					c0.244,0,0.485-0.09,0.673-0.261l11.189-10.192c0.208-0.189,0.327-0.458,0.327-0.739s-0.119-0.55-0.327-0.739L63.997,91.272
					c-0.293-0.267-0.716-0.336-1.078-0.175c-0.362,0.16-0.596,0.519-0.596,0.915v4.335c-2.64,0.441-11.586,1.483-19.935-2.829
					c-2.685-1.386-5.082-3.777-7.146-6.51h43.011v20.389c0,3.309,2.691,6,6,6h30.058c3.309,0,6-2.691,6-6V45.484
					C120.311,42.176,117.62,39.484,114.311,39.484z M80.253,48.302h38.058v53.344H80.253V48.302z M118.311,45.484v0.818H80.253
					v-0.818c0-2.206,1.794-4,4-4h30.058C116.517,41.484,118.311,43.279,118.311,45.484z M14.684,16.604c0-2.757,2.243-5,5-5h82.801
					c2.757,0,5,2.243,5,5v22.881h-5.028V21.441c0-1.654-1.346-3-3-3H22.711c-1.654,0-3,1.346-3,3v24.841c0,0.552,0.448,1,1,1
					s1-0.448,1-1V21.441c0-0.551,0.449-1,1-1h76.745c0.551,0,1,0.449,1,1v18.043H84.253c-3.309,0-6,2.691-6,6v29.645H28.574
					c-1.201-2.793-1.853-4.763-1.872-4.823c-0.146-0.45-0.586-0.739-1.057-0.686c-0.47,0.05-0.841,0.422-0.889,0.893
					c-0.024,0.231-0.188,1.986-0.136,4.615h-2.908V64.948c0-0.552-0.448-1-1-1s-1,0.448-1,1v10.181h-5.028V16.604z M9.634,85.008
					c-2.727,0-4.945-2.218-4.945-4.945v-2.933h20.01c0.133,2.296,0.445,5.014,1.09,7.878H9.634z M41.471,95.295
					c10.556,5.452,21.614,2.963,22.08,2.854c0.453-0.105,0.773-0.509,0.773-0.974v-2.9l8.704,7.929l-8.704,7.929v-2.9
					c0-0.307-0.141-0.596-0.381-0.786c-0.178-0.14-0.396-0.214-0.619-0.214c-0.079,0-0.157,0.009-0.235,0.028
					c-0.163,0.04-16.339,3.8-27.442-6.706c-7.191-6.804-8.738-17.472-8.979-23.748C29.219,81.799,34.301,91.593,41.471,95.295z
					 M33.824,85.008c-1.758-2.641-3.22-5.438-4.355-7.878h48.784v7.878H33.824z M114.311,111.396H84.253c-2.206,0-4-1.794-4-4v-3.75
					h38.058v3.75C118.311,109.602,116.517,111.396,114.311,111.396z"/>
				<path fill="#3A2C60" d="M100.911,51.781c-0.501-0.229-1.096-0.011-1.326,0.491l-4.522,9.848
					c-0.23,0.502-0.011,1.096,0.491,1.326c0.135,0.062,0.277,0.091,0.417,0.091c0.378,0,0.741-0.216,0.909-0.583l4.522-9.848
					C101.633,52.605,101.413,52.012,100.911,51.781z"/>
				<path fill="#3A2C60" d="M111.156,56.856l-5.723-4.924c-0.419-0.36-1.05-0.313-1.41,0.105c-0.36,0.419-0.313,1.05,0.105,1.41
					l4.842,4.166l-4.842,4.167c-0.418,0.36-0.466,0.991-0.105,1.41c0.198,0.23,0.477,0.348,0.758,0.348
					c0.231,0,0.463-0.08,0.652-0.242l5.723-4.924c0.221-0.19,0.348-0.467,0.348-0.758C111.504,57.322,111.377,57.046,111.156,56.856
					z"/>
				<path fill="#3A2C60" d="M92.442,52.038c-0.36-0.418-0.991-0.466-1.41-0.105l-5.723,4.924c-0.221,0.19-0.348,0.466-0.348,0.758
					c0,0.291,0.127,0.568,0.348,0.758l5.723,4.924c0.189,0.163,0.421,0.242,0.652,0.242c0.281,0,0.561-0.118,0.758-0.348
					c0.36-0.419,0.313-1.05-0.105-1.41l-4.842-4.167l4.842-4.166C92.755,53.088,92.802,52.457,92.442,52.038z"/>
			</g>
		</g>
	</g>
</g>
</svg>
