<?xml version="1.0" encoding="utf-8"?>
<!-- Generator: Adobe Illustrator 24.0.0, SVG Export Plug-In . SVG Version: 6.00 Build 0)  -->
<svg version="1.1" id="Layer_1" xmlns="http://www.w3.org/2000/svg" xmlns:xlink="http://www.w3.org/1999/xlink" x="0px" y="0px"
	 viewBox="0 0 128 128" enable-background="new 0 0 128 128" xml:space="preserve">
<g>
	<path fill="#E6E7E8" d="M122.895,106.735H113.9V48.209c0-3.86-3.141-7-7-7h-7.528V25.051c0-0.002,0.001-8.664,0.001-8.664
		c0-2.206-1.794-4-4-4H35.628c-2.206,0-4,1.794-4,4v24.822h-7.528c-3.859,0-7,3.14-7,7v58.526H8.104c-0.553,0-1,0.448-1,1v3.934
		c0,3.83,3.115,6.945,6.945,6.945h102.898c3.831,0,6.947-3.115,6.947-6.945v-3.934C123.895,107.182,123.448,106.735,122.895,106.735
		z"/>
	<g>
		<g>
			<path fill="#0089EF" d="M108.9,103.735V44.209c0-3.314-2.686-6-6-6H20.099c-3.314,0-6,2.686-6,6v59.526H108.9z"/>
			<path fill="#6DC9F7" d="M101.872,103.735V49.046c0-1.105-0.895-2-2-2H23.127c-1.105,0-2,0.895-2,2v54.689H101.872z"/>
			<path fill="#FFFFFF" d="M99.872,47.046h-3c1.105,0,2,0.895,2,2v54.688h3V49.046C101.872,47.941,100.977,47.046,99.872,47.046z"/>
			<path fill="#0089EF" d="M4.105,103.735v3.933c0,3.283,2.662,5.945,5.945,5.945h102.898c3.284,0,5.946-2.662,5.946-5.945v-3.933
				H4.105z"/>
			<path fill="#0089EF" d="M4.105,103.735v3.933c0,3.283,2.662,5.945,5.945,5.945h102.898c3.284,0,5.946-2.662,5.946-5.945v-3.933
				H4.105z"/>
			<path fill="#6DC9F7" d="M42.449,103.735v1.991c0,1.662,1.347,3.009,3.009,3.009h32.083c1.662,0,3.01-1.348,3.01-3.009v-1.991
				H42.449z"/>
		</g>
		<rect x="28.627" y="21.046" fill="#D4FBFF" width="65.745" height="82.689"/>
		<path fill="#FFD7E5" d="M87.372,46.734V31.046c0-1.105-0.895-2-2-2H37.627c-1.105,0-2,0.895-2,2v15.688c0,1.105,0.895,2,2,2
			h47.745C86.477,48.734,87.372,47.839,87.372,46.734z"/>
		<path fill="#0089EF" d="M94.372,12.387v8.659H28.628v-8.659c0-1.657,1.343-3,3-3h59.745C93.029,9.387,94.372,10.73,94.372,12.387z
			"/>
		<path fill="#FA759E" d="M57.372,72.734V58.046c0-1.105-0.895-2-2-2H37.627c-1.105,0-2,0.895-2,2v14.688c0,1.105,0.895,2,2,2
			h17.744C56.476,74.734,57.372,73.839,57.372,72.734z"/>
		<g>
			<path fill="#FA759E" d="M87.372,72.734V58.046c0-1.105-0.895-2-2-2H67.628c-1.105,0-2,0.895-2,2v14.688c0,1.105,0.895,2,2,2
				h17.744C86.477,74.734,87.372,73.839,87.372,72.734z"/>
			<g>
				<path fill="#3A2C60" d="M21.127,89.22c0.553,0,1-0.448,1-1v-9.667c0-0.552-0.447-1-1-1s-1,0.448-1,1v9.667
					C20.127,88.772,20.574,89.22,21.127,89.22z"/>
				<path fill="#3A2C60" d="M118.895,102.734H109.9V44.209c0-3.86-3.141-7-7-7h-7.528V12.387c0-2.206-1.794-4-4-4H31.628
					c-2.206,0-4,1.794-4,4l-0.001,24.822H20.1c-3.859,0-7,3.14-7,7v58.525H4.104c-0.553,0-1,0.448-1,1v3.934
					c0,3.83,3.115,6.945,6.945,6.945h102.898c3.83,0,6.946-3.115,6.946-6.945v-3.934
					C119.895,103.182,119.447,102.734,118.895,102.734z M102.9,39.209c2.757,0,5,2.243,5,5v58.525h-5.028V49.046
					c0-1.654-1.346-3-3-3h-4.5v-6.837H102.9z M95.372,102.734V48.046h4.5c0.552,0,1,0.449,1,1v53.688H95.372z M29.627,22.046h63.745
					v80.688H29.627V22.046z M29.628,12.387c0-1.103,0.897-2,2-2h59.744c1.103,0,2,0.897,2,2v7.659H29.628V12.387z M15.1,44.209
					c0-2.757,2.243-5,5-5h7.527v6.837h-4.5c-1.654,0-3,1.346-3,3v24.841c0,0.552,0.447,1,1,1s1-0.448,1-1V49.046
					c0-0.551,0.448-1,1-1h4.5v54.688h-5.5V92.553c0-0.552-0.447-1-1-1s-1,0.448-1,1v10.181H15.1V44.209z M117.895,107.668
					c0,2.727-2.219,4.945-4.946,4.945H10.05c-2.727,0-4.945-2.218-4.945-4.945v-2.934h112.79V107.668z"/>
				<path fill="#3A2C60" d="M85.372,28.046H37.628c-1.654,0-3,1.346-3,3v15.688c0,1.654,1.346,3,3,3h47.744c1.654,0,3-1.346,3-3
					V31.046C88.372,29.392,87.026,28.046,85.372,28.046z M86.372,46.734c0,0.551-0.448,1-1,1H37.628c-0.552,0-1-0.449-1-1V31.046
					c0-0.551,0.448-1,1-1h47.744c0.552,0,1,0.449,1,1V46.734z"/>
				<path fill="#3A2C60" d="M55.372,55.046H37.628c-1.654,0-3,1.346-3,3v14.688c0,1.654,1.346,3,3,3h17.744c1.654,0,3-1.346,3-3
					V58.046C58.372,56.392,57.026,55.046,55.372,55.046z M56.372,72.734c0,0.551-0.448,1-1,1H37.628c-0.552,0-1-0.449-1-1V58.046
					c0-0.551,0.448-1,1-1h17.744c0.552,0,1,0.449,1,1V72.734z"/>
				<path fill="#3A2C60" d="M57.372,81.046H35.628c-0.553,0-1,0.448-1,1s0.447,1,1,1h21.744c0.553,0,1-0.448,1-1
					S57.925,81.046,57.372,81.046z"/>
				<path fill="#3A2C60" d="M57.372,88.046H35.628c-0.553,0-1,0.448-1,1s0.447,1,1,1h21.744c0.553,0,1-0.448,1-1
					S57.925,88.046,57.372,88.046z"/>
				<path fill="#3A2C60" d="M57.372,95.046H35.628c-0.553,0-1,0.448-1,1s0.447,1,1,1h21.744c0.553,0,1-0.448,1-1
					S57.925,95.046,57.372,95.046z"/>
				<path fill="#3A2C60" d="M85.372,55.046H67.628c-1.654,0-3,1.346-3,3v14.688c0,1.654,1.346,3,3,3h17.744c1.654,0,3-1.346,3-3
					V58.046C88.372,56.392,87.026,55.046,85.372,55.046z M86.372,72.734c0,0.551-0.448,1-1,1H67.628c-0.552,0-1-0.449-1-1V58.046
					c0-0.551,0.448-1,1-1h17.744c0.552,0,1,0.449,1,1V72.734z"/>
				<path fill="#3A2C60" d="M87.372,81.046H65.628c-0.553,0-1,0.448-1,1s0.447,1,1,1h21.744c0.553,0,1-0.448,1-1
					S87.925,81.046,87.372,81.046z"/>
				<path fill="#3A2C60" d="M87.372,88.046H65.628c-0.553,0-1,0.448-1,1s0.447,1,1,1h21.744c0.553,0,1-0.448,1-1
					S87.925,88.046,87.372,88.046z"/>
				<path fill="#3A2C60" d="M87.372,95.046H65.628c-0.553,0-1,0.448-1,1s0.447,1,1,1h21.744c0.553,0,1-0.448,1-1
					S87.925,95.046,87.372,95.046z"/>
			</g>
		</g>
		<g>
			<circle fill="#FFFFFF" cx="49.962" cy="15.217" r="2"/>
			<circle fill="#D4FBFF" cx="42.696" cy="15.217" r="2"/>
			<circle fill="#FA759E" cx="35.431" cy="15.217" r="2"/>
		</g>
	</g>
</g>
</svg>
