<?xml version="1.0" encoding="utf-8"?>
<!-- Generator: Adobe Illustrator 24.0.0, SVG Export Plug-In . SVG Version: 6.00 Build 0)  -->
<svg version="1.1" id="Layer_1" xmlns="http://www.w3.org/2000/svg" xmlns:xlink="http://www.w3.org/1999/xlink" x="0px" y="0px"
	 viewBox="0 0 128 128" enable-background="new 0 0 128 128" xml:space="preserve">
<g>
	<path fill="#E6E7E8" d="M120.324,12.166H87.261c-2.757,0-5,2.243-5,5v1.667H10.53c-2.677,0-4.854,2.178-4.854,4.854v13.5
		c0,0.001,0,0.002,0,0.002v76.644c0,2.757,2.243,5,5,5H113.18c2.757,0,5-2.243,5-5V55.23h2.145c2.757,0,5-2.243,5-5V17.166
		C125.324,14.41,123.081,12.166,120.324,12.166z"/>
	<g>
		<g>
			<path fill="#D4FBFF" d="M113.18,33.19H2.676v76.643c0,2.209,1.791,4,4,4H109.18c2.209,0,4-1.791,4-4V33.19z"/>
			<path fill="#FFFFFF" d="M109.18,110.833H6.676c-2.209,0-4-1.791-4-4v3c0,2.209,1.791,4,4,4H109.18c2.209,0,4-1.791,4-4v-3
				C113.18,109.042,111.389,110.833,109.18,110.833z"/>
			<g>
				<path fill="#FA759E" d="M41.672,74.833h-6.809c-0.552,0-1-0.447-1-1s0.448-1,1-1h6.809c0.552,0,1,0.447,1,1
					S42.225,74.833,41.672,74.833z"/>
				<path fill="#FA759E" d="M28.864,74.833H12.031c-0.552,0-1-0.447-1-1s0.448-1,1-1h16.833c0.552,0,1,0.447,1,1
					S29.416,74.833,28.864,74.833z"/>
				<path fill="#FA759E" d="M103.824,81.833H51.362c-0.552,0-1-0.447-1-1s0.448-1,1-1h52.462c0.553,0,1,0.447,1,1
					S104.377,81.833,103.824,81.833z"/>
				<path fill="#FA759E" d="M44.197,81.833H19.031c-0.552,0-1-0.447-1-1s0.448-1,1-1h25.166c0.552,0,1,0.447,1,1
					S44.75,81.833,44.197,81.833z"/>
				<path fill="#FA759E" d="M103.824,88.833H37.451c-0.552,0-1-0.447-1-1s0.448-1,1-1h66.373c0.553,0,1,0.447,1,1
					S104.377,88.833,103.824,88.833z"/>
				<path fill="#FA759E" d="M31.364,88.833H19.031c-0.552,0-1-0.447-1-1s0.448-1,1-1h12.333c0.552,0,1,0.447,1,1
					S31.916,88.833,31.364,88.833z"/>
				<path fill="#FA759E" d="M103.824,95.834H19.031c-0.552,0-1-0.447-1-1s0.448-1,1-1h84.793c0.553,0,1,0.447,1,1
					S104.377,95.834,103.824,95.834z"/>
				<path fill="#FA759E" d="M41.672,102.834H31.364c-0.552,0-1-0.447-1-1s0.448-1,1-1h10.309c0.552,0,1,0.447,1,1
					S42.225,102.834,41.672,102.834z"/>
				<path fill="#FA759E" d="M27.364,102.834H12.031c-0.552,0-1-0.447-1-1s0.448-1,1-1h15.333c0.552,0,1,0.447,1,1
					S27.916,102.834,27.364,102.834z"/>
			</g>
			<path fill="#0089EF" d="M109.325,15.833H6.53c-2.129,0-3.855,1.726-3.855,3.855V33.19H113.18V19.688
				C113.18,17.559,111.454,15.833,109.325,15.833z"/>
			<circle fill="#FFFFFF" cx="36.999" cy="24.919" r="3.139"/>
			<circle fill="#D4FBFF" cx="25.598" cy="24.919" r="3.139"/>
			<circle fill="#FA759E" cx="14.196" cy="24.919" r="3.139"/>
		</g>
		<g>
			<path fill="#FA759E" d="M116.325,50.23H83.261c-2.209,0-4-1.791-4-4V13.167c0-2.209,1.791-4,4-4h33.063c2.209,0,4,1.791,4,4
				V46.23C120.325,48.439,118.534,50.23,116.325,50.23z"/>
			<g>
				<path fill="#3A2C60" d="M113.18,64.833c-0.553,0-1,0.447-1,1v11.834c0,0.553,0.447,1,1,1s1-0.447,1-1V65.833
					C114.18,65.28,113.732,64.833,113.18,64.833z"/>
				<path fill="#3A2C60" d="M38.088,43.534l-8.391,18.274c-0.23,0.502-0.01,1.096,0.491,1.326c0.135,0.062,0.277,0.091,0.417,0.091
					c0.378,0,0.741-0.216,0.909-0.583l8.391-18.274c0.23-0.502,0.01-1.096-0.491-1.326C38.913,42.814,38.319,43.032,38.088,43.534z"
					/>
				<path fill="#3A2C60" d="M46.194,62.878c0.198,0.229,0.477,0.348,0.758,0.348c0.231,0,0.463-0.079,0.652-0.242l10.619-9.138
					c0.221-0.189,0.348-0.467,0.348-0.758s-0.127-0.568-0.348-0.758l-10.619-9.137c-0.419-0.361-1.05-0.313-1.41,0.105
					c-0.36,0.419-0.313,1.05,0.105,1.41l9.738,8.379l-9.738,8.38C45.881,61.828,45.834,62.459,46.194,62.878z"/>
				<path fill="#3A2C60" d="M23.408,43.299c-0.36-0.418-0.991-0.467-1.41-0.105L11.379,52.33c-0.221,0.189-0.348,0.467-0.348,0.758
					s0.127,0.568,0.348,0.758l10.619,9.138c0.189,0.163,0.421,0.242,0.652,0.242c0.281,0,0.561-0.118,0.758-0.348
					c0.36-0.419,0.313-1.05-0.105-1.41l-9.738-8.38l9.738-8.379C23.721,44.349,23.768,43.718,23.408,43.299z"/>
				<path fill="#3A2C60" d="M116.324,8.167H83.261c-2.757,0-5,2.243-5,5v1.666H6.53c-2.677,0-4.854,2.178-4.854,4.854v90.146
					c0,2.757,2.243,5,5,5H109.18c2.757,0,5-2.243,5-5V83c0-0.553-0.447-1-1-1s-1,0.447-1,1v26.833c0,1.654-1.346,3-3,3H6.676
					c-1.654,0-3-1.346-3-3V34.19h74.585v12.04c0,2.757,2.243,5,5,5h28.919v9.603c0,0.553,0.447,1,1,1s1-0.447,1-1V51.23h2.145
					c2.757,0,5-2.243,5-5V13.167C121.324,10.41,119.081,8.167,116.324,8.167z M3.676,32.19V19.688c0-1.574,1.281-2.854,2.854-2.854
					h71.73V32.19H3.676z M119.324,46.23c0,1.654-1.346,3-3,3H83.261c-1.654,0-3-1.346-3-3V13.167c0-1.654,1.346-3,3-3h33.063
					c1.654,0,3,1.346,3,3V46.23z"/>
			</g>
		</g>
		<g>
			<path fill="#FFFFFF" d="M99.793,46.698c-3.874,0-5.901-8.552-5.901-17s2.027-17,5.901-17s5.901,8.552,5.901,17
				S103.667,46.698,99.793,46.698z M99.793,14.698c-1.591,0-3.901,5.844-3.901,15s2.311,15,3.901,15s3.901-5.844,3.901-15
				S101.384,14.698,99.793,14.698z"/>
			<path fill="#FFFFFF" d="M99.793,35.6c-8.448,0-17-2.027-17-5.901s8.552-5.901,17-5.901s17,2.027,17,5.901
				S108.241,35.6,99.793,35.6z M99.793,25.797c-9.156,0-15,2.311-15,3.901s5.844,3.901,15,3.901s15-2.311,15-3.901
				S108.949,25.797,99.793,25.797z"/>
			<path fill="#FFFFFF" d="M109.61,42.528c-3.512,0-9.229-3.897-13.99-8.657c-5.974-5.974-10.587-13.454-7.848-16.193
				c2.734-2.739,10.219,1.874,16.193,7.848l0,0c5.973,5.974,10.587,13.454,7.848,16.193
				C111.258,42.275,110.506,42.528,109.61,42.528z M90.022,18.831c-0.379,0-0.663,0.088-0.836,0.261
				c-1.125,1.125,1.373,6.891,7.848,13.365c6.475,6.474,12.244,8.971,13.365,7.848c1.124-1.125-1.374-6.89-7.848-13.365
				C97.074,21.463,92.104,18.831,90.022,18.831z"/>
			<path fill="#FFFFFF" d="M89.976,42.528c-0.896,0-1.646-0.253-2.203-0.81c-2.739-2.739,1.875-10.22,7.848-16.193l0,0
				c5.975-5.974,13.454-10.588,16.193-7.848c2.739,2.739-1.874,10.22-7.848,16.193C99.205,38.631,93.487,42.528,89.976,42.528z
				 M97.034,26.939c-6.474,6.476-8.972,12.24-7.848,13.365c1.124,1.123,6.891-1.374,13.365-7.848
				c6.475-6.475,8.973-12.24,7.848-13.365C109.278,17.969,103.509,20.467,97.034,26.939L97.034,26.939z"/>
		</g>
	</g>
</g>
</svg>
